<mxfile host="app.diagrams.net" agent="Mozilla/5.0 (Windows NT 10.0; Win64; x64) AppleWebKit/537.36 (KHTML, like Gecko) Chrome/128.0.0.0 Safari/537.36" version="24.7.17">
  <diagram name="Página-1" id="Ax6G7xWcNThnfck5FQkn">
    <mxGraphModel dx="2142" dy="1096" grid="1" gridSize="10" guides="1" tooltips="1" connect="1" arrows="1" fold="1" page="1" pageScale="1" pageWidth="827" pageHeight="1169" math="0" shadow="0">
      <root>
        <mxCell id="0" />
        <mxCell id="1" parent="0" />
        <mxCell id="G5PO6u8xQWYdRqNQs2qU-140" style="edgeStyle=orthogonalEdgeStyle;rounded=0;orthogonalLoop=1;jettySize=auto;html=1;" edge="1" parent="1" source="G5PO6u8xQWYdRqNQs2qU-123" target="G5PO6u8xQWYdRqNQs2qU-138">
          <mxGeometry relative="1" as="geometry" />
        </mxCell>
        <mxCell id="G5PO6u8xQWYdRqNQs2qU-123" value="" style="rounded=0;whiteSpace=wrap;html=1;" vertex="1" parent="1">
          <mxGeometry x="3618.75" y="1665.5" width="161.25" height="170" as="geometry" />
        </mxCell>
        <mxCell id="G5PO6u8xQWYdRqNQs2qU-68" value="" style="rounded=0;whiteSpace=wrap;html=1;fillColor=#f5f5f5;fontColor=#333333;strokeColor=#666666;" vertex="1" parent="1">
          <mxGeometry x="3030" y="250" width="1160" height="850" as="geometry" />
        </mxCell>
        <mxCell id="G5PO6u8xQWYdRqNQs2qU-89" value="" style="rounded=0;whiteSpace=wrap;html=1;fillColor=#dae8fc;strokeColor=#6c8ebf;" vertex="1" parent="1">
          <mxGeometry x="3050" y="290" width="1120" height="790" as="geometry" />
        </mxCell>
        <mxCell id="G5PO6u8xQWYdRqNQs2qU-91" value="" style="whiteSpace=wrap;html=1;aspect=fixed;fillColor=#e1d5e7;strokeColor=#9673a6;" vertex="1" parent="1">
          <mxGeometry x="3419" y="330" width="745" height="745" as="geometry" />
        </mxCell>
        <mxCell id="G5PO6u8xQWYdRqNQs2qU-66" value="" style="rounded=0;whiteSpace=wrap;html=1;" vertex="1" parent="1">
          <mxGeometry x="2240" y="250" width="720" height="490" as="geometry" />
        </mxCell>
        <mxCell id="G5PO6u8xQWYdRqNQs2qU-2" value="Padrões para Kubernetes&#xa;(Contêineres que podem ser automatizados em escala)" style="swimlane;fillStyle=auto;startSize=45;fillColor=#fff2cc;swimlaneLine=0;strokeColor=#d6b656;swimlaneFillColor=none;glass=0;portConstraintRotation=0;movable=1;resizable=1;rotatable=1;deletable=1;editable=1;locked=0;connectable=1;" vertex="1" parent="1">
          <mxGeometry x="20" y="50" width="500" height="730" as="geometry">
            <mxRectangle x="170" y="210" width="340" height="40" as="alternateBounds" />
          </mxGeometry>
        </mxCell>
        <mxCell id="G5PO6u8xQWYdRqNQs2qU-3" value="Princípios de microsserviços&lt;div&gt;(Serviços otimizados para mudanças)&lt;/div&gt;" style="swimlane;whiteSpace=wrap;html=1;startSize=40;swimlaneLine=0;fillColor=#ffe6cc;strokeColor=#d79b00;movable=1;resizable=1;rotatable=1;deletable=1;editable=1;locked=0;connectable=1;" vertex="1" parent="G5PO6u8xQWYdRqNQs2qU-2">
          <mxGeometry x="20" y="180" width="460" height="540" as="geometry" />
        </mxCell>
        <mxCell id="G5PO6u8xQWYdRqNQs2qU-4" value="Design Orientado a Domínio&lt;div&gt;(Modelo de domínio predominante)&lt;/div&gt;" style="swimlane;whiteSpace=wrap;html=1;startSize=40;swimlaneLine=0;fillColor=#f8cecc;strokeColor=#b85450;movable=1;resizable=1;rotatable=1;deletable=1;editable=1;locked=0;connectable=1;" vertex="1" parent="G5PO6u8xQWYdRqNQs2qU-3">
          <mxGeometry x="10" y="160" width="430" height="360" as="geometry" />
        </mxCell>
        <mxCell id="G5PO6u8xQWYdRqNQs2qU-5" value="Código organizado&lt;div&gt;(Código bem criado)&lt;/div&gt;" style="swimlane;whiteSpace=wrap;html=1;startSize=40;swimlaneLine=0;strokeColor=#9673a6;fillColor=#e1d5e7;movable=1;resizable=1;rotatable=1;deletable=1;editable=1;locked=0;connectable=1;" vertex="1" parent="G5PO6u8xQWYdRqNQs2qU-4">
          <mxGeometry x="20" y="160" width="400" height="180" as="geometry" />
        </mxCell>
        <mxCell id="G5PO6u8xQWYdRqNQs2qU-8" value="&lt;h1 style=&quot;text-align: center; margin-top: 0px;&quot;&gt;Nível mais baixo&lt;/h1&gt;&lt;p style=&quot;text-align: justify;&quot;&gt;Toda variável que definir, todo método que criar e toda classe que decidir instanciar desempenha um papel na manutenção da aplicação no longo prazo.&amp;nbsp;&lt;/p&gt;" style="text;html=1;whiteSpace=wrap;overflow=hidden;rounded=0;" vertex="1" parent="G5PO6u8xQWYdRqNQs2qU-5">
          <mxGeometry x="20" y="50" width="360" height="120" as="geometry" />
        </mxCell>
        <mxCell id="G5PO6u8xQWYdRqNQs2qU-10" value="&lt;h1 style=&quot;margin-top: 0px;&quot;&gt;DDD&lt;/h1&gt;&lt;p style=&quot;text-align: justify;&quot;&gt;Design de software do ponto de vista dos negócios, com intenção de manter a arquitetura mais próxima possível do mundo real.&lt;/p&gt;" style="text;html=1;whiteSpace=wrap;overflow=hidden;rounded=0;align=center;" vertex="1" parent="G5PO6u8xQWYdRqNQs2qU-4">
          <mxGeometry x="25" y="50" width="390" height="100" as="geometry" />
        </mxCell>
        <mxCell id="G5PO6u8xQWYdRqNQs2qU-11" value="&lt;h1 style=&quot;text-align: center; margin-top: 0px;&quot;&gt;&lt;font style=&quot;font-size: 24px;&quot;&gt;Arquitetura de Microserviços&lt;/font&gt;&lt;/h1&gt;&lt;p&gt;A aplicação desses princípios permite criar implementações otimizadas para escalar, e estas são resilientes preparadas para mudanças.&lt;/p&gt;" style="text;html=1;whiteSpace=wrap;overflow=hidden;rounded=0;" vertex="1" parent="G5PO6u8xQWYdRqNQs2qU-3">
          <mxGeometry x="10" y="50" width="440" height="100" as="geometry" />
        </mxCell>
        <mxCell id="G5PO6u8xQWYdRqNQs2qU-12" value="&lt;h1 style=&quot;text-align: center; margin-top: 0px;&quot;&gt;Os Contêineres&lt;/h1&gt;&lt;p style=&quot;text-align: justify;&quot;&gt;Adotados como forma de empacotamento e execução de aplicações distribuídas. Modularização e reutilizáveis que sejam bons cidadãos no mundo nativo de nuvem, é outro pré-requisito fundamental&lt;/p&gt;" style="text;html=1;whiteSpace=wrap;overflow=hidden;rounded=0;" vertex="1" parent="G5PO6u8xQWYdRqNQs2qU-2">
          <mxGeometry x="30" y="50" width="440" height="120" as="geometry" />
        </mxCell>
        <mxCell id="G5PO6u8xQWYdRqNQs2qU-6" value="Caminho para ambiente nativo em Nuvem" style="text;html=1;align=center;verticalAlign=middle;whiteSpace=wrap;rounded=0;fontSize=24;fontStyle=5;movable=1;resizable=1;rotatable=1;deletable=1;editable=1;locked=0;connectable=1;" vertex="1" parent="1">
          <mxGeometry x="20" y="800" width="520" height="30" as="geometry" />
        </mxCell>
        <mxCell id="G5PO6u8xQWYdRqNQs2qU-13" value="POD" style="rounded=0;whiteSpace=wrap;html=1;fillColor=#f5f5f5;fontColor=#333333;strokeColor=#666666;" vertex="1" parent="1">
          <mxGeometry x="1130" y="290" width="120" height="60" as="geometry" />
        </mxCell>
        <mxCell id="G5PO6u8xQWYdRqNQs2qU-17" value="" style="edgeStyle=orthogonalEdgeStyle;rounded=0;orthogonalLoop=1;jettySize=auto;html=1;fillColor=#f5f5f5;strokeColor=#666666;" edge="1" parent="1" source="G5PO6u8xQWYdRqNQs2qU-14" target="G5PO6u8xQWYdRqNQs2qU-16">
          <mxGeometry relative="1" as="geometry" />
        </mxCell>
        <mxCell id="G5PO6u8xQWYdRqNQs2qU-14" value="DEPLOYMENT" style="rounded=0;whiteSpace=wrap;html=1;fillColor=#f5f5f5;fontColor=#333333;strokeColor=#666666;" vertex="1" parent="1">
          <mxGeometry x="960" y="20" width="120" height="60" as="geometry" />
        </mxCell>
        <mxCell id="G5PO6u8xQWYdRqNQs2qU-21" value="" style="edgeStyle=orthogonalEdgeStyle;rounded=0;orthogonalLoop=1;jettySize=auto;html=1;fillColor=#f5f5f5;strokeColor=#666666;" edge="1" parent="1" source="G5PO6u8xQWYdRqNQs2qU-15" target="G5PO6u8xQWYdRqNQs2qU-20">
          <mxGeometry relative="1" as="geometry" />
        </mxCell>
        <mxCell id="G5PO6u8xQWYdRqNQs2qU-15" value="CRONJOB" style="rounded=0;whiteSpace=wrap;html=1;fillColor=#f5f5f5;fontColor=#333333;strokeColor=#666666;" vertex="1" parent="1">
          <mxGeometry x="1300" y="20" width="120" height="60" as="geometry" />
        </mxCell>
        <mxCell id="G5PO6u8xQWYdRqNQs2qU-24" style="rounded=0;orthogonalLoop=1;jettySize=auto;html=1;entryX=0;entryY=0.25;entryDx=0;entryDy=0;exitX=0.5;exitY=1;exitDx=0;exitDy=0;fillColor=#f5f5f5;strokeColor=#666666;" edge="1" parent="1" source="G5PO6u8xQWYdRqNQs2qU-16" target="G5PO6u8xQWYdRqNQs2qU-13">
          <mxGeometry relative="1" as="geometry" />
        </mxCell>
        <mxCell id="G5PO6u8xQWYdRqNQs2qU-16" value="REPLICASET" style="whiteSpace=wrap;html=1;rounded=0;fillColor=#f5f5f5;fontColor=#333333;strokeColor=#666666;" vertex="1" parent="1">
          <mxGeometry x="960" y="160" width="120" height="60" as="geometry" />
        </mxCell>
        <mxCell id="G5PO6u8xQWYdRqNQs2qU-23" style="rounded=0;orthogonalLoop=1;jettySize=auto;html=1;entryX=-0.017;entryY=0.4;entryDx=0;entryDy=0;exitX=0.5;exitY=1;exitDx=0;exitDy=0;entryPerimeter=0;fillColor=#f5f5f5;strokeColor=#666666;" edge="1" parent="1" source="G5PO6u8xQWYdRqNQs2qU-18" target="G5PO6u8xQWYdRqNQs2qU-13">
          <mxGeometry relative="1" as="geometry" />
        </mxCell>
        <mxCell id="G5PO6u8xQWYdRqNQs2qU-18" value="DAEMONSET" style="rounded=0;whiteSpace=wrap;html=1;fillColor=#f5f5f5;fontColor=#333333;strokeColor=#666666;" vertex="1" parent="1">
          <mxGeometry x="800" y="160" width="120" height="60" as="geometry" />
        </mxCell>
        <mxCell id="G5PO6u8xQWYdRqNQs2qU-25" style="rounded=0;orthogonalLoop=1;jettySize=auto;html=1;entryX=0.5;entryY=0;entryDx=0;entryDy=0;fillColor=#f5f5f5;strokeColor=#666666;" edge="1" parent="1" source="G5PO6u8xQWYdRqNQs2qU-19" target="G5PO6u8xQWYdRqNQs2qU-13">
          <mxGeometry relative="1" as="geometry" />
        </mxCell>
        <mxCell id="G5PO6u8xQWYdRqNQs2qU-19" value="STATEFULSET" style="rounded=0;whiteSpace=wrap;html=1;fillColor=#f5f5f5;fontColor=#333333;strokeColor=#666666;" vertex="1" parent="1">
          <mxGeometry x="1130" y="160" width="120" height="60" as="geometry" />
        </mxCell>
        <mxCell id="G5PO6u8xQWYdRqNQs2qU-26" style="rounded=0;orthogonalLoop=1;jettySize=auto;html=1;entryX=1;entryY=0.25;entryDx=0;entryDy=0;fillColor=#f5f5f5;strokeColor=#666666;" edge="1" parent="1" source="G5PO6u8xQWYdRqNQs2qU-20" target="G5PO6u8xQWYdRqNQs2qU-13">
          <mxGeometry relative="1" as="geometry" />
        </mxCell>
        <mxCell id="G5PO6u8xQWYdRqNQs2qU-20" value="JOB" style="whiteSpace=wrap;html=1;rounded=0;fillColor=#f5f5f5;fontColor=#333333;strokeColor=#666666;" vertex="1" parent="1">
          <mxGeometry x="1300" y="160" width="120" height="60" as="geometry" />
        </mxCell>
        <mxCell id="G5PO6u8xQWYdRqNQs2qU-27" style="rounded=0;orthogonalLoop=1;jettySize=auto;html=1;entryX=1;entryY=0.5;entryDx=0;entryDy=0;exitX=0.442;exitY=1.05;exitDx=0;exitDy=0;exitPerimeter=0;fillColor=#f5f5f5;strokeColor=#666666;" edge="1" parent="1" source="G5PO6u8xQWYdRqNQs2qU-22" target="G5PO6u8xQWYdRqNQs2qU-13">
          <mxGeometry relative="1" as="geometry" />
        </mxCell>
        <mxCell id="G5PO6u8xQWYdRqNQs2qU-22" value="REPLICATION&lt;div&gt;CONTROLLER&lt;/div&gt;" style="rounded=0;whiteSpace=wrap;html=1;fillColor=#f5f5f5;fontColor=#333333;strokeColor=#666666;" vertex="1" parent="1">
          <mxGeometry x="1480" y="160" width="120" height="60" as="geometry" />
        </mxCell>
        <mxCell id="G5PO6u8xQWYdRqNQs2qU-28" value="SERVICE" style="rounded=0;whiteSpace=wrap;html=1;fillColor=#f5f5f5;fontColor=#333333;strokeColor=#666666;" vertex="1" parent="1">
          <mxGeometry x="800" y="420" width="120" height="60" as="geometry" />
        </mxCell>
        <mxCell id="G5PO6u8xQWYdRqNQs2qU-35" style="rounded=0;orthogonalLoop=1;jettySize=auto;html=1;entryX=0;entryY=0.75;entryDx=0;entryDy=0;exitX=0.5;exitY=0;exitDx=0;exitDy=0;fillColor=#f5f5f5;strokeColor=#666666;" edge="1" parent="1" source="G5PO6u8xQWYdRqNQs2qU-29" target="G5PO6u8xQWYdRqNQs2qU-13">
          <mxGeometry relative="1" as="geometry" />
        </mxCell>
        <mxCell id="G5PO6u8xQWYdRqNQs2qU-29" value="HORIZONTAL POD AUTOSCALER" style="rounded=0;whiteSpace=wrap;html=1;fillColor=#f5f5f5;fontColor=#333333;strokeColor=#666666;" vertex="1" parent="1">
          <mxGeometry x="960" y="420" width="120" height="60" as="geometry" />
        </mxCell>
        <mxCell id="G5PO6u8xQWYdRqNQs2qU-36" style="rounded=0;orthogonalLoop=1;jettySize=auto;html=1;entryX=0.5;entryY=1;entryDx=0;entryDy=0;fillColor=#f5f5f5;strokeColor=#666666;" edge="1" parent="1" source="G5PO6u8xQWYdRqNQs2qU-30" target="G5PO6u8xQWYdRqNQs2qU-13">
          <mxGeometry relative="1" as="geometry" />
        </mxCell>
        <mxCell id="G5PO6u8xQWYdRqNQs2qU-40" value="" style="edgeStyle=orthogonalEdgeStyle;rounded=0;orthogonalLoop=1;jettySize=auto;html=1;fillColor=#f5f5f5;strokeColor=#666666;" edge="1" parent="1" source="G5PO6u8xQWYdRqNQs2qU-30" target="G5PO6u8xQWYdRqNQs2qU-39">
          <mxGeometry relative="1" as="geometry" />
        </mxCell>
        <mxCell id="G5PO6u8xQWYdRqNQs2qU-30" value="CONTÊINER&lt;div&gt;(SEM CÓDIGO)&lt;/div&gt;" style="rounded=0;whiteSpace=wrap;html=1;fillColor=#f5f5f5;fontColor=#333333;strokeColor=#666666;" vertex="1" parent="1">
          <mxGeometry x="1130" y="420" width="120" height="60" as="geometry" />
        </mxCell>
        <mxCell id="G5PO6u8xQWYdRqNQs2qU-37" style="rounded=0;orthogonalLoop=1;jettySize=auto;html=1;entryX=1;entryY=1;entryDx=0;entryDy=0;exitX=0.5;exitY=0;exitDx=0;exitDy=0;fillColor=#f5f5f5;strokeColor=#666666;" edge="1" parent="1" source="G5PO6u8xQWYdRqNQs2qU-31" target="G5PO6u8xQWYdRqNQs2qU-13">
          <mxGeometry relative="1" as="geometry" />
        </mxCell>
        <mxCell id="G5PO6u8xQWYdRqNQs2qU-31" value="VERTICAL POD AUTOESCALAR" style="rounded=0;whiteSpace=wrap;html=1;fillColor=#f5f5f5;fontColor=#333333;strokeColor=#666666;" vertex="1" parent="1">
          <mxGeometry x="1300" y="420" width="120" height="60" as="geometry" />
        </mxCell>
        <mxCell id="G5PO6u8xQWYdRqNQs2qU-38" style="rounded=0;orthogonalLoop=1;jettySize=auto;html=1;entryX=1;entryY=0.75;entryDx=0;entryDy=0;exitX=0.417;exitY=-0.017;exitDx=0;exitDy=0;exitPerimeter=0;fillColor=#f5f5f5;strokeColor=#666666;" edge="1" parent="1" source="G5PO6u8xQWYdRqNQs2qU-32" target="G5PO6u8xQWYdRqNQs2qU-13">
          <mxGeometry relative="1" as="geometry" />
        </mxCell>
        <mxCell id="G5PO6u8xQWYdRqNQs2qU-32" value="POD DISRUPTION BUDGET" style="rounded=0;whiteSpace=wrap;html=1;fillColor=#f5f5f5;fontColor=#333333;strokeColor=#666666;" vertex="1" parent="1">
          <mxGeometry x="1480" y="420" width="120" height="60" as="geometry" />
        </mxCell>
        <mxCell id="G5PO6u8xQWYdRqNQs2qU-34" style="rounded=0;orthogonalLoop=1;jettySize=auto;html=1;entryX=-0.008;entryY=0.65;entryDx=0;entryDy=0;entryPerimeter=0;exitX=0.5;exitY=0;exitDx=0;exitDy=0;fillColor=#f5f5f5;strokeColor=#666666;" edge="1" parent="1" source="G5PO6u8xQWYdRqNQs2qU-28" target="G5PO6u8xQWYdRqNQs2qU-13">
          <mxGeometry relative="1" as="geometry" />
        </mxCell>
        <mxCell id="G5PO6u8xQWYdRqNQs2qU-46" style="rounded=0;orthogonalLoop=1;jettySize=auto;html=1;entryX=0.5;entryY=0;entryDx=0;entryDy=0;exitX=0;exitY=0.5;exitDx=0;exitDy=0;fillColor=#f5f5f5;strokeColor=#666666;" edge="1" parent="1" source="G5PO6u8xQWYdRqNQs2qU-39" target="G5PO6u8xQWYdRqNQs2qU-41">
          <mxGeometry relative="1" as="geometry" />
        </mxCell>
        <mxCell id="G5PO6u8xQWYdRqNQs2qU-47" style="rounded=0;orthogonalLoop=1;jettySize=auto;html=1;entryX=0.5;entryY=0;entryDx=0;entryDy=0;exitX=0.25;exitY=1;exitDx=0;exitDy=0;fillColor=#f5f5f5;strokeColor=#666666;" edge="1" parent="1" source="G5PO6u8xQWYdRqNQs2qU-39" target="G5PO6u8xQWYdRqNQs2qU-42">
          <mxGeometry relative="1" as="geometry" />
        </mxCell>
        <mxCell id="G5PO6u8xQWYdRqNQs2qU-48" style="rounded=0;orthogonalLoop=1;jettySize=auto;html=1;entryX=0.5;entryY=0;entryDx=0;entryDy=0;fillColor=#f5f5f5;strokeColor=#666666;" edge="1" parent="1" source="G5PO6u8xQWYdRqNQs2qU-39" target="G5PO6u8xQWYdRqNQs2qU-43">
          <mxGeometry relative="1" as="geometry" />
        </mxCell>
        <mxCell id="G5PO6u8xQWYdRqNQs2qU-49" style="rounded=0;orthogonalLoop=1;jettySize=auto;html=1;exitX=0.75;exitY=1;exitDx=0;exitDy=0;entryX=0.5;entryY=0;entryDx=0;entryDy=0;fillColor=#f5f5f5;strokeColor=#666666;" edge="1" parent="1" source="G5PO6u8xQWYdRqNQs2qU-39" target="G5PO6u8xQWYdRqNQs2qU-44">
          <mxGeometry relative="1" as="geometry" />
        </mxCell>
        <mxCell id="G5PO6u8xQWYdRqNQs2qU-50" style="rounded=0;orthogonalLoop=1;jettySize=auto;html=1;entryX=0.5;entryY=0;entryDx=0;entryDy=0;exitX=1;exitY=0.5;exitDx=0;exitDy=0;fillColor=#f5f5f5;strokeColor=#666666;" edge="1" parent="1" source="G5PO6u8xQWYdRqNQs2qU-39" target="G5PO6u8xQWYdRqNQs2qU-45">
          <mxGeometry relative="1" as="geometry" />
        </mxCell>
        <mxCell id="G5PO6u8xQWYdRqNQs2qU-39" value="VOLUME" style="whiteSpace=wrap;html=1;rounded=0;fillColor=#f5f5f5;fontColor=#333333;strokeColor=#666666;" vertex="1" parent="1">
          <mxGeometry x="1130" y="560" width="120" height="60" as="geometry" />
        </mxCell>
        <mxCell id="G5PO6u8xQWYdRqNQs2qU-41" value="CONFIGMAP" style="rounded=0;whiteSpace=wrap;html=1;fillColor=#f5f5f5;fontColor=#333333;strokeColor=#666666;" vertex="1" parent="1">
          <mxGeometry x="800" y="700" width="120" height="60" as="geometry" />
        </mxCell>
        <mxCell id="G5PO6u8xQWYdRqNQs2qU-42" value="SECRET" style="rounded=0;whiteSpace=wrap;html=1;fillColor=#f5f5f5;fontColor=#333333;strokeColor=#666666;" vertex="1" parent="1">
          <mxGeometry x="960" y="700" width="120" height="60" as="geometry" />
        </mxCell>
        <mxCell id="G5PO6u8xQWYdRqNQs2qU-43" value="PERSISTENT VOLUMECLAIM" style="rounded=0;whiteSpace=wrap;html=1;fillColor=#f5f5f5;fontColor=#333333;strokeColor=#666666;" vertex="1" parent="1">
          <mxGeometry x="1130" y="700" width="120" height="60" as="geometry" />
        </mxCell>
        <mxCell id="G5PO6u8xQWYdRqNQs2qU-44" value="DOWNWARD API" style="rounded=0;whiteSpace=wrap;html=1;fillColor=#f5f5f5;fontColor=#333333;strokeColor=#666666;" vertex="1" parent="1">
          <mxGeometry x="1300" y="700" width="120" height="60" as="geometry" />
        </mxCell>
        <mxCell id="G5PO6u8xQWYdRqNQs2qU-45" value="HOSTPATH;&lt;div&gt;EMPTYDIR&lt;/div&gt;" style="rounded=0;whiteSpace=wrap;html=1;fillColor=#f5f5f5;fontColor=#333333;strokeColor=#666666;" vertex="1" parent="1">
          <mxGeometry x="1480" y="700" width="120" height="60" as="geometry" />
        </mxCell>
        <mxCell id="G5PO6u8xQWYdRqNQs2qU-51" value="Conceito de Kubernetes para os desenvolvedores" style="text;html=1;align=center;verticalAlign=middle;whiteSpace=wrap;rounded=0;fontSize=24;fontStyle=5;movable=1;resizable=1;rotatable=1;deletable=1;editable=1;locked=0;connectable=1;" vertex="1" parent="1">
          <mxGeometry x="900" y="800" width="630" height="30" as="geometry" />
        </mxCell>
        <object placeholders="1" c4Name="Application" c4Type="Person" c4Description="Usuário" label="&lt;font style=&quot;font-size: 16px&quot;&gt;&lt;b&gt;%c4Name%&lt;/b&gt;&lt;/font&gt;&lt;div&gt;[%c4Type%]&lt;/div&gt;&lt;br&gt;&lt;div&gt;&lt;font style=&quot;font-size: 11px&quot;&gt;&lt;font color=&quot;#cccccc&quot;&gt;%c4Description%&lt;/font&gt;&lt;/div&gt;" id="G5PO6u8xQWYdRqNQs2qU-52">
          <mxCell style="html=1;fontSize=11;dashed=0;whiteSpace=wrap;fillColor=#083F75;strokeColor=#06315C;fontColor=#ffffff;shape=mxgraph.c4.person2;align=center;metaEdit=1;points=[[0.5,0,0],[1,0.5,0],[1,0.75,0],[0.75,1,0],[0.5,1,0],[0.25,1,0],[0,0.75,0],[0,0.5,0]];resizable=0;" vertex="1" parent="1">
            <mxGeometry x="1840" width="200" height="180" as="geometry" />
          </mxCell>
        </object>
        <object placeholders="1" c4Name="Server" c4Type="Container" c4Technology="Dotnet" c4Description="Server Application" label="&lt;font style=&quot;font-size: 16px&quot;&gt;&lt;b&gt;%c4Name%&lt;/b&gt;&lt;/font&gt;&lt;div&gt;[%c4Type%: %c4Technology%]&lt;/div&gt;&lt;br&gt;&lt;div&gt;&lt;font style=&quot;font-size: 11px&quot;&gt;&lt;font color=&quot;#E6E6E6&quot;&gt;%c4Description%&lt;/font&gt;&lt;/div&gt;" id="G5PO6u8xQWYdRqNQs2qU-53">
          <mxCell style="rounded=1;whiteSpace=wrap;html=1;fontSize=11;labelBackgroundColor=none;fillColor=#23A2D9;fontColor=#ffffff;align=center;arcSize=10;strokeColor=#0E7DAD;metaEdit=1;resizable=0;points=[[0.25,0,0],[0.5,0,0],[0.75,0,0],[1,0.25,0],[1,0.5,0],[1,0.75,0],[0.75,1,0],[0.5,1,0],[0.25,1,0],[0,0.75,0],[0,0.5,0],[0,0.25,0]];" vertex="1" parent="1">
            <mxGeometry x="1820" y="300" width="240" height="120" as="geometry" />
          </mxCell>
        </object>
        <mxCell id="G5PO6u8xQWYdRqNQs2qU-54" style="edgeStyle=orthogonalEdgeStyle;rounded=0;orthogonalLoop=1;jettySize=auto;html=1;entryX=0.5;entryY=0;entryDx=0;entryDy=0;entryPerimeter=0;" edge="1" parent="1" source="G5PO6u8xQWYdRqNQs2qU-52" target="G5PO6u8xQWYdRqNQs2qU-53">
          <mxGeometry relative="1" as="geometry" />
        </mxCell>
        <mxCell id="G5PO6u8xQWYdRqNQs2qU-61" style="edgeStyle=orthogonalEdgeStyle;rounded=0;orthogonalLoop=1;jettySize=auto;html=1;" edge="1" parent="1" source="G5PO6u8xQWYdRqNQs2qU-55" target="G5PO6u8xQWYdRqNQs2qU-60">
          <mxGeometry relative="1" as="geometry" />
        </mxCell>
        <object placeholders="1" c4Name="Client Web" c4Type="Person" c4Description="Usuário" label="&lt;font style=&quot;font-size: 16px&quot;&gt;&lt;b&gt;%c4Name%&lt;/b&gt;&lt;/font&gt;&lt;div&gt;[%c4Type%]&lt;/div&gt;&lt;br&gt;&lt;div&gt;&lt;font style=&quot;font-size: 11px&quot;&gt;&lt;font color=&quot;#cccccc&quot;&gt;%c4Description%&lt;/font&gt;&lt;/div&gt;" id="G5PO6u8xQWYdRqNQs2qU-55">
          <mxCell style="html=1;fontSize=11;dashed=0;whiteSpace=wrap;fillColor=#083F75;strokeColor=#06315C;fontColor=#ffffff;shape=mxgraph.c4.person2;align=center;metaEdit=1;points=[[0.5,0,0],[1,0.5,0],[1,0.75,0],[0.75,1,0],[0.5,1,0],[0.25,1,0],[0,0.75,0],[0,0.5,0]];resizable=0;" vertex="1" parent="1">
            <mxGeometry x="2290" y="10" width="200" height="180" as="geometry" />
          </mxCell>
        </object>
        <mxCell id="G5PO6u8xQWYdRqNQs2qU-64" style="edgeStyle=orthogonalEdgeStyle;rounded=0;orthogonalLoop=1;jettySize=auto;html=1;" edge="1" parent="1" source="G5PO6u8xQWYdRqNQs2qU-60" target="G5PO6u8xQWYdRqNQs2qU-62">
          <mxGeometry relative="1" as="geometry" />
        </mxCell>
        <object placeholders="1" c4Name="Server API" c4Type="Container" c4Technology="Dotnet" c4Description="Server Application" label="&lt;font style=&quot;font-size: 16px&quot;&gt;&lt;b&gt;%c4Name%&lt;/b&gt;&lt;/font&gt;&lt;div&gt;[%c4Type%: %c4Technology%]&lt;/div&gt;&lt;br&gt;&lt;div&gt;&lt;font style=&quot;font-size: 11px&quot;&gt;&lt;font color=&quot;#E6E6E6&quot;&gt;%c4Description%&lt;/font&gt;&lt;/div&gt;" id="G5PO6u8xQWYdRqNQs2qU-60">
          <mxCell style="rounded=1;whiteSpace=wrap;html=1;fontSize=11;labelBackgroundColor=none;fillColor=#23A2D9;fontColor=#ffffff;align=center;arcSize=10;strokeColor=#0E7DAD;metaEdit=1;resizable=0;points=[[0.25,0,0],[0.5,0,0],[0.75,0,0],[1,0.25,0],[1,0.5,0],[1,0.75,0],[0.75,1,0],[0.5,1,0],[0.25,1,0],[0,0.75,0],[0,0.5,0],[0,0.25,0]];" vertex="1" parent="1">
            <mxGeometry x="2270" y="310" width="240" height="120" as="geometry" />
          </mxCell>
        </object>
        <object placeholders="1" c4Name="REST API" c4Type="Container" c4Technology="C#" c4Description="Micro Service" label="&lt;font style=&quot;font-size: 16px&quot;&gt;&lt;b&gt;%c4Name%&lt;/b&gt;&lt;/font&gt;&lt;div&gt;[%c4Type%:&amp;nbsp;%c4Technology%]&lt;/div&gt;&lt;br&gt;&lt;div&gt;&lt;font style=&quot;font-size: 11px&quot;&gt;&lt;font color=&quot;#E6E6E6&quot;&gt;%c4Description%&lt;/font&gt;&lt;/div&gt;" id="G5PO6u8xQWYdRqNQs2qU-62">
          <mxCell style="shape=hexagon;size=50;perimeter=hexagonPerimeter2;whiteSpace=wrap;html=1;fixedSize=1;rounded=1;labelBackgroundColor=none;fillColor=#23A2D9;fontSize=12;fontColor=#ffffff;align=center;strokeColor=#0E7DAD;metaEdit=1;points=[[0.5,0,0],[1,0.25,0],[1,0.5,0],[1,0.75,0],[0.5,1,0],[0,0.75,0],[0,0.5,0],[0,0.25,0]];resizable=0;" vertex="1" parent="1">
            <mxGeometry x="2290" y="510" width="200" height="170" as="geometry" />
          </mxCell>
        </object>
        <object placeholders="1" c4Name="Database" c4Type="Container" c4Technology="Sql Server Azure" c4Description="App Database" label="&lt;font style=&quot;font-size: 16px&quot;&gt;&lt;b&gt;%c4Name%&lt;/b&gt;&lt;/font&gt;&lt;div&gt;[%c4Type%:&amp;nbsp;%c4Technology%]&lt;/div&gt;&lt;br&gt;&lt;div&gt;&lt;font style=&quot;font-size: 11px&quot;&gt;&lt;font color=&quot;#E6E6E6&quot;&gt;%c4Description%&lt;/font&gt;&lt;/div&gt;" id="G5PO6u8xQWYdRqNQs2qU-63">
          <mxCell style="shape=cylinder3;size=15;whiteSpace=wrap;html=1;boundedLbl=1;rounded=0;labelBackgroundColor=none;fillColor=#23A2D9;fontSize=12;fontColor=#ffffff;align=center;strokeColor=#0E7DAD;metaEdit=1;points=[[0.5,0,0],[1,0.25,0],[1,0.5,0],[1,0.75,0],[0.5,1,0],[0,0.75,0],[0,0.5,0],[0,0.25,0]];resizable=0;" vertex="1" parent="1">
            <mxGeometry x="2610" y="535" width="240" height="120" as="geometry" />
          </mxCell>
        </object>
        <mxCell id="G5PO6u8xQWYdRqNQs2qU-65" style="edgeStyle=orthogonalEdgeStyle;rounded=0;orthogonalLoop=1;jettySize=auto;html=1;entryX=0;entryY=0.5;entryDx=0;entryDy=0;entryPerimeter=0;" edge="1" parent="1" source="G5PO6u8xQWYdRqNQs2qU-62" target="G5PO6u8xQWYdRqNQs2qU-63">
          <mxGeometry relative="1" as="geometry" />
        </mxCell>
        <mxCell id="G5PO6u8xQWYdRqNQs2qU-67" value="Cloud" style="text;html=1;align=center;verticalAlign=middle;whiteSpace=wrap;rounded=0;" vertex="1" parent="1">
          <mxGeometry x="2880" y="260" width="60" height="30" as="geometry" />
        </mxCell>
        <mxCell id="G5PO6u8xQWYdRqNQs2qU-69" style="edgeStyle=orthogonalEdgeStyle;rounded=0;orthogonalLoop=1;jettySize=auto;html=1;" edge="1" source="G5PO6u8xQWYdRqNQs2qU-70" target="G5PO6u8xQWYdRqNQs2qU-72" parent="1">
          <mxGeometry relative="1" as="geometry" />
        </mxCell>
        <object placeholders="1" c4Name="Client Web" c4Type="Person" c4Description="Usuário" label="&lt;font style=&quot;font-size: 16px&quot;&gt;&lt;b&gt;%c4Name%&lt;/b&gt;&lt;/font&gt;&lt;div&gt;[%c4Type%]&lt;/div&gt;&lt;br&gt;&lt;div&gt;&lt;font style=&quot;font-size: 11px&quot;&gt;&lt;font color=&quot;#cccccc&quot;&gt;%c4Description%&lt;/font&gt;&lt;/div&gt;" id="G5PO6u8xQWYdRqNQs2qU-70">
          <mxCell style="html=1;fontSize=11;dashed=0;whiteSpace=wrap;fillColor=#083F75;strokeColor=#06315C;fontColor=#ffffff;shape=mxgraph.c4.person2;align=center;metaEdit=1;points=[[0.5,0,0],[1,0.5,0],[1,0.75,0],[0.75,1,0],[0.5,1,0],[0.25,1,0],[0,0.75,0],[0,0.5,0]];resizable=0;" vertex="1" parent="1">
            <mxGeometry x="3080" y="10" width="200" height="180" as="geometry" />
          </mxCell>
        </object>
        <object placeholders="1" c4Name="EKS - GKS - AKS" c4Type="Container" c4Technology="Cloud" c4Description="Balancer Service" label="&lt;font style=&quot;font-size: 16px&quot;&gt;&lt;b&gt;%c4Name%&lt;/b&gt;&lt;/font&gt;&lt;div&gt;[%c4Type%: %c4Technology%]&lt;/div&gt;&lt;br&gt;&lt;div&gt;&lt;font style=&quot;font-size: 11px&quot;&gt;&lt;font color=&quot;#E6E6E6&quot;&gt;%c4Description%&lt;/font&gt;&lt;/div&gt;" id="G5PO6u8xQWYdRqNQs2qU-72">
          <mxCell style="rounded=1;whiteSpace=wrap;html=1;fontSize=11;labelBackgroundColor=none;fillColor=#23A2D9;fontColor=#ffffff;align=center;arcSize=10;strokeColor=#0E7DAD;metaEdit=1;resizable=0;points=[[0.25,0,0],[0.5,0,0],[0.75,0,0],[1,0.25,0],[1,0.5,0],[1,0.75,0],[0.75,1,0],[0.5,1,0],[0.25,1,0],[0,0.75,0],[0,0.5,0],[0,0.25,0]];" vertex="1" parent="1">
            <mxGeometry x="3060" y="340" width="240" height="120" as="geometry" />
          </mxCell>
        </object>
        <object placeholders="1" c4Name="REST API" c4Type="Container" c4Technology="C#" c4Description="Log - Monitoramento" label="&lt;font style=&quot;font-size: 16px&quot;&gt;&lt;b&gt;%c4Name%&lt;/b&gt;&lt;/font&gt;&lt;div&gt;[%c4Type%:&amp;nbsp;%c4Technology%]&lt;/div&gt;&lt;br&gt;&lt;div&gt;&lt;font style=&quot;font-size: 11px&quot;&gt;&lt;font color=&quot;#E6E6E6&quot;&gt;%c4Description%&lt;/font&gt;&lt;/div&gt;" id="G5PO6u8xQWYdRqNQs2qU-73">
          <mxCell style="shape=hexagon;size=50;perimeter=hexagonPerimeter2;whiteSpace=wrap;html=1;fixedSize=1;rounded=1;labelBackgroundColor=none;fillColor=#23A2D9;fontSize=12;fontColor=#ffffff;align=center;strokeColor=#0E7DAD;metaEdit=1;points=[[0.5,0,0],[1,0.25,0],[1,0.5,0],[1,0.75,0],[0.5,1,0],[0,0.75,0],[0,0.5,0],[0,0.25,0]];resizable=0;" vertex="1" parent="1">
            <mxGeometry x="3465" y="880" width="200" height="170" as="geometry" />
          </mxCell>
        </object>
        <object placeholders="1" c4Name="Database" c4Type="Container" c4Technology="Sql Server Azure" c4Description="App Database" label="&lt;font style=&quot;font-size: 16px&quot;&gt;&lt;b&gt;%c4Name%&lt;/b&gt;&lt;/font&gt;&lt;div&gt;[%c4Type%:&amp;nbsp;%c4Technology%]&lt;/div&gt;&lt;br&gt;&lt;div&gt;&lt;font style=&quot;font-size: 11px&quot;&gt;&lt;font color=&quot;#E6E6E6&quot;&gt;%c4Description%&lt;/font&gt;&lt;/div&gt;" id="G5PO6u8xQWYdRqNQs2qU-74">
          <mxCell style="shape=cylinder3;size=15;whiteSpace=wrap;html=1;boundedLbl=1;rounded=0;labelBackgroundColor=none;fillColor=#23A2D9;fontSize=12;fontColor=#ffffff;align=center;strokeColor=#0E7DAD;metaEdit=1;points=[[0.5,0,0],[1,0.25,0],[1,0.5,0],[1,0.75,0],[0.5,1,0],[0,0.75,0],[0,0.5,0],[0,0.25,0]];resizable=0;" vertex="1" parent="1">
            <mxGeometry x="3820" y="905" width="240" height="120" as="geometry" />
          </mxCell>
        </object>
        <mxCell id="G5PO6u8xQWYdRqNQs2qU-75" style="edgeStyle=orthogonalEdgeStyle;rounded=0;orthogonalLoop=1;jettySize=auto;html=1;entryX=0;entryY=0.5;entryDx=0;entryDy=0;entryPerimeter=0;" edge="1" source="G5PO6u8xQWYdRqNQs2qU-73" target="G5PO6u8xQWYdRqNQs2qU-74" parent="1">
          <mxGeometry relative="1" as="geometry" />
        </mxCell>
        <mxCell id="G5PO6u8xQWYdRqNQs2qU-76" value="VPS" style="text;html=1;align=center;verticalAlign=middle;whiteSpace=wrap;rounded=0;" vertex="1" parent="1">
          <mxGeometry x="4110" y="260" width="60" height="30" as="geometry" />
        </mxCell>
        <object placeholders="1" c4Name="Web Server" c4Type="Software System" c4Description="Server Application" label="&lt;font style=&quot;font-size: 16px&quot;&gt;&lt;b&gt;%c4Name%&lt;/b&gt;&lt;/font&gt;&lt;div&gt;[%c4Type%]&lt;/div&gt;&lt;br&gt;&lt;div&gt;&lt;font style=&quot;font-size: 11px&quot;&gt;&lt;font color=&quot;#cccccc&quot;&gt;%c4Description%&lt;/font&gt;&lt;/div&gt;" id="G5PO6u8xQWYdRqNQs2qU-77">
          <mxCell style="rounded=1;whiteSpace=wrap;html=1;labelBackgroundColor=none;fillColor=#1061B0;fontColor=#ffffff;align=center;arcSize=10;strokeColor=#0D5091;metaEdit=1;resizable=0;points=[[0.25,0,0],[0.5,0,0],[0.75,0,0],[1,0.25,0],[1,0.5,0],[1,0.75,0],[0.75,1,0],[0.5,1,0],[0.25,1,0],[0,0.75,0],[0,0.5,0],[0,0.25,0]];" vertex="1" parent="1">
            <mxGeometry x="3060" y="540" width="240" height="120" as="geometry" />
          </mxCell>
        </object>
        <object placeholders="1" c4Name="REST API" c4Type="Container" c4Technology="C#" c4Description="Débito" label="&lt;font style=&quot;font-size: 16px&quot;&gt;&lt;b&gt;%c4Name%&lt;/b&gt;&lt;/font&gt;&lt;div&gt;[%c4Type%:&amp;nbsp;%c4Technology%]&lt;/div&gt;&lt;br&gt;&lt;div&gt;&lt;font style=&quot;font-size: 11px&quot;&gt;&lt;font color=&quot;#E6E6E6&quot;&gt;%c4Description%&lt;/font&gt;&lt;/div&gt;" id="G5PO6u8xQWYdRqNQs2qU-80">
          <mxCell style="shape=hexagon;size=50;perimeter=hexagonPerimeter2;whiteSpace=wrap;html=1;fixedSize=1;rounded=1;labelBackgroundColor=none;fillColor=#23A2D9;fontSize=12;fontColor=#ffffff;align=center;strokeColor=#0E7DAD;metaEdit=1;points=[[0.5,0,0],[1,0.25,0],[1,0.5,0],[1,0.75,0],[0.5,1,0],[0,0.75,0],[0,0.5,0],[0,0.25,0]];resizable=0;" vertex="1" parent="1">
            <mxGeometry x="3465" y="700" width="200" height="170" as="geometry" />
          </mxCell>
        </object>
        <mxCell id="G5PO6u8xQWYdRqNQs2qU-81" style="edgeStyle=orthogonalEdgeStyle;rounded=0;orthogonalLoop=1;jettySize=auto;html=1;entryX=0;entryY=0.5;entryDx=0;entryDy=0;entryPerimeter=0;" edge="1" source="G5PO6u8xQWYdRqNQs2qU-80" target="G5PO6u8xQWYdRqNQs2qU-82" parent="1">
          <mxGeometry relative="1" as="geometry" />
        </mxCell>
        <object placeholders="1" c4Name="Database" c4Type="Container" c4Technology="Sql Server Azure" c4Description="App Database" label="&lt;font style=&quot;font-size: 16px&quot;&gt;&lt;b&gt;%c4Name%&lt;/b&gt;&lt;/font&gt;&lt;div&gt;[%c4Type%:&amp;nbsp;%c4Technology%]&lt;/div&gt;&lt;br&gt;&lt;div&gt;&lt;font style=&quot;font-size: 11px&quot;&gt;&lt;font color=&quot;#E6E6E6&quot;&gt;%c4Description%&lt;/font&gt;&lt;/div&gt;" id="G5PO6u8xQWYdRqNQs2qU-82">
          <mxCell style="shape=cylinder3;size=15;whiteSpace=wrap;html=1;boundedLbl=1;rounded=0;labelBackgroundColor=none;fillColor=#23A2D9;fontSize=12;fontColor=#ffffff;align=center;strokeColor=#0E7DAD;metaEdit=1;points=[[0.5,0,0],[1,0.25,0],[1,0.5,0],[1,0.75,0],[0.5,1,0],[0,0.75,0],[0,0.5,0],[0,0.25,0]];resizable=0;" vertex="1" parent="1">
            <mxGeometry x="3820" y="725" width="240" height="120" as="geometry" />
          </mxCell>
        </object>
        <object placeholders="1" c4Name="REST API" c4Type="Container" c4Technology="C#" c4Description="Credito" label="&lt;font style=&quot;font-size: 16px&quot;&gt;&lt;b&gt;%c4Name%&lt;/b&gt;&lt;/font&gt;&lt;div&gt;[%c4Type%:&amp;nbsp;%c4Technology%]&lt;/div&gt;&lt;br&gt;&lt;div&gt;&lt;font style=&quot;font-size: 11px&quot;&gt;&lt;font color=&quot;#E6E6E6&quot;&gt;%c4Description%&lt;/font&gt;&lt;/div&gt;" id="G5PO6u8xQWYdRqNQs2qU-83">
          <mxCell style="shape=hexagon;size=50;perimeter=hexagonPerimeter2;whiteSpace=wrap;html=1;fixedSize=1;rounded=1;labelBackgroundColor=none;fillColor=#23A2D9;fontSize=12;fontColor=#ffffff;align=center;strokeColor=#0E7DAD;metaEdit=1;points=[[0.5,0,0],[1,0.25,0],[1,0.5,0],[1,0.75,0],[0.5,1,0],[0,0.75,0],[0,0.5,0],[0,0.25,0]];resizable=0;" vertex="1" parent="1">
            <mxGeometry x="3460" y="520" width="200" height="170" as="geometry" />
          </mxCell>
        </object>
        <object placeholders="1" c4Name="Database" c4Type="Container" c4Technology="Sql Server Azure" c4Description="App Database" label="&lt;font style=&quot;font-size: 16px&quot;&gt;&lt;b&gt;%c4Name%&lt;/b&gt;&lt;/font&gt;&lt;div&gt;[%c4Type%:&amp;nbsp;%c4Technology%]&lt;/div&gt;&lt;br&gt;&lt;div&gt;&lt;font style=&quot;font-size: 11px&quot;&gt;&lt;font color=&quot;#E6E6E6&quot;&gt;%c4Description%&lt;/font&gt;&lt;/div&gt;" id="G5PO6u8xQWYdRqNQs2qU-84">
          <mxCell style="shape=cylinder3;size=15;whiteSpace=wrap;html=1;boundedLbl=1;rounded=0;labelBackgroundColor=none;fillColor=#23A2D9;fontSize=12;fontColor=#ffffff;align=center;strokeColor=#0E7DAD;metaEdit=1;points=[[0.5,0,0],[1,0.25,0],[1,0.5,0],[1,0.75,0],[0.5,1,0],[0,0.75,0],[0,0.5,0],[0,0.25,0]];resizable=0;" vertex="1" parent="1">
            <mxGeometry x="3820" y="545" width="240" height="120" as="geometry" />
          </mxCell>
        </object>
        <mxCell id="G5PO6u8xQWYdRqNQs2qU-85" style="edgeStyle=orthogonalEdgeStyle;rounded=0;orthogonalLoop=1;jettySize=auto;html=1;entryX=0;entryY=0.5;entryDx=0;entryDy=0;entryPerimeter=0;" edge="1" source="G5PO6u8xQWYdRqNQs2qU-83" target="G5PO6u8xQWYdRqNQs2qU-84" parent="1">
          <mxGeometry relative="1" as="geometry" />
        </mxCell>
        <object placeholders="1" c4Name="Container name" c4Type="Container" c4Technology="e.g. Apache Kafka, etc." c4Description="Description of message bus type container role/responsibility." label="&lt;font style=&quot;font-size: 16px&quot;&gt;&lt;b&gt;%c4Name%&lt;/b&gt;&lt;/font&gt;&lt;div&gt;[%c4Type%:&amp;nbsp;%c4Technology%]&lt;/div&gt;&lt;br&gt;&lt;div&gt;&lt;font style=&quot;font-size: 11px&quot;&gt;&lt;font color=&quot;#E6E6E6&quot;&gt;%c4Description%&lt;/font&gt;&lt;/div&gt;" id="G5PO6u8xQWYdRqNQs2qU-86">
          <mxCell style="shape=cylinder3;size=15;direction=south;whiteSpace=wrap;html=1;boundedLbl=1;rounded=0;labelBackgroundColor=none;fillColor=#23A2D9;fontSize=12;fontColor=#ffffff;align=center;strokeColor=#0E7DAD;metaEdit=1;points=[[0.5,0,0],[1,0.25,0],[1,0.5,0],[1,0.75,0],[0.5,1,0],[0,0.75,0],[0,0.5,0],[0,0.25,0]];resizable=0;" vertex="1" parent="1">
            <mxGeometry x="3060" y="731" width="240" height="120" as="geometry" />
          </mxCell>
        </object>
        <mxCell id="G5PO6u8xQWYdRqNQs2qU-87" style="edgeStyle=orthogonalEdgeStyle;rounded=0;orthogonalLoop=1;jettySize=auto;html=1;entryX=0.5;entryY=0;entryDx=0;entryDy=0;entryPerimeter=0;" edge="1" parent="1" source="G5PO6u8xQWYdRqNQs2qU-72" target="G5PO6u8xQWYdRqNQs2qU-77">
          <mxGeometry relative="1" as="geometry" />
        </mxCell>
        <mxCell id="G5PO6u8xQWYdRqNQs2qU-88" style="edgeStyle=orthogonalEdgeStyle;rounded=0;orthogonalLoop=1;jettySize=auto;html=1;entryX=0;entryY=0.5;entryDx=0;entryDy=0;entryPerimeter=0;" edge="1" parent="1" source="G5PO6u8xQWYdRqNQs2qU-77" target="G5PO6u8xQWYdRqNQs2qU-86">
          <mxGeometry relative="1" as="geometry" />
        </mxCell>
        <mxCell id="G5PO6u8xQWYdRqNQs2qU-90" value="Cloud" style="text;html=1;align=center;verticalAlign=middle;whiteSpace=wrap;rounded=0;" vertex="1" parent="1">
          <mxGeometry x="4130" y="220" width="60" height="30" as="geometry" />
        </mxCell>
        <mxCell id="G5PO6u8xQWYdRqNQs2qU-92" value="CLUSTER" style="text;html=1;align=center;verticalAlign=middle;whiteSpace=wrap;rounded=0;" vertex="1" parent="1">
          <mxGeometry x="4104" y="300" width="60" height="30" as="geometry" />
        </mxCell>
        <mxCell id="G5PO6u8xQWYdRqNQs2qU-93" style="rounded=0;orthogonalLoop=1;jettySize=auto;html=1;entryX=0;entryY=0.5;entryDx=0;entryDy=0;entryPerimeter=0;exitX=0.5;exitY=0;exitDx=0;exitDy=0;exitPerimeter=0;startArrow=classic;startFill=1;" edge="1" parent="1" source="G5PO6u8xQWYdRqNQs2qU-86" target="G5PO6u8xQWYdRqNQs2qU-83">
          <mxGeometry relative="1" as="geometry" />
        </mxCell>
        <mxCell id="G5PO6u8xQWYdRqNQs2qU-94" style="rounded=0;orthogonalLoop=1;jettySize=auto;html=1;entryX=0;entryY=0.5;entryDx=0;entryDy=0;entryPerimeter=0;startArrow=classic;startFill=1;" edge="1" parent="1" source="G5PO6u8xQWYdRqNQs2qU-86" target="G5PO6u8xQWYdRqNQs2qU-80">
          <mxGeometry relative="1" as="geometry" />
        </mxCell>
        <mxCell id="G5PO6u8xQWYdRqNQs2qU-96" style="rounded=0;orthogonalLoop=1;jettySize=auto;html=1;entryX=0;entryY=0.5;entryDx=0;entryDy=0;entryPerimeter=0;exitX=0.5;exitY=0;exitDx=0;exitDy=0;exitPerimeter=0;startArrow=classic;startFill=1;" edge="1" parent="1" source="G5PO6u8xQWYdRqNQs2qU-86" target="G5PO6u8xQWYdRqNQs2qU-73">
          <mxGeometry relative="1" as="geometry" />
        </mxCell>
        <object placeholders="1" c4Name="Security" c4Type="Container" c4Technology="MongoDB" c4Description="Database" label="&lt;font style=&quot;font-size: 16px&quot;&gt;&lt;b&gt;%c4Name%&lt;/b&gt;&lt;/font&gt;&lt;div&gt;[%c4Type%:&amp;nbsp;%c4Technology%]&lt;/div&gt;&lt;br&gt;&lt;div&gt;&lt;font style=&quot;font-size: 11px&quot;&gt;&lt;font color=&quot;#E6E6E6&quot;&gt;%c4Description%&lt;/font&gt;&lt;/div&gt;" id="G5PO6u8xQWYdRqNQs2qU-97">
          <mxCell style="shape=cylinder3;size=15;whiteSpace=wrap;html=1;boundedLbl=1;rounded=0;labelBackgroundColor=none;fillColor=#23A2D9;fontSize=12;fontColor=#ffffff;align=center;strokeColor=#0E7DAD;metaEdit=1;points=[[0.5,0,0],[1,0.25,0],[1,0.5,0],[1,0.75,0],[0.5,1,0],[0,0.75,0],[0,0.5,0],[0,0.25,0]];resizable=0;" vertex="1" parent="1">
            <mxGeometry x="3810" y="365" width="240" height="120" as="geometry" />
          </mxCell>
        </object>
        <object placeholders="1" c4Name="REST API" c4Type="Container" c4Technology="C#" c4Description="Security" label="&lt;font style=&quot;font-size: 16px&quot;&gt;&lt;b&gt;%c4Name%&lt;/b&gt;&lt;/font&gt;&lt;div&gt;[%c4Type%:&amp;nbsp;%c4Technology%]&lt;/div&gt;&lt;br&gt;&lt;div&gt;&lt;font style=&quot;font-size: 11px&quot;&gt;&lt;font color=&quot;#E6E6E6&quot;&gt;%c4Description%&lt;/font&gt;&lt;/div&gt;" id="G5PO6u8xQWYdRqNQs2qU-98">
          <mxCell style="shape=hexagon;size=50;perimeter=hexagonPerimeter2;whiteSpace=wrap;html=1;fixedSize=1;rounded=1;labelBackgroundColor=none;fillColor=#23A2D9;fontSize=12;fontColor=#ffffff;align=center;strokeColor=#0E7DAD;metaEdit=1;points=[[0.5,0,0],[1,0.25,0],[1,0.5,0],[1,0.75,0],[0.5,1,0],[0,0.75,0],[0,0.5,0],[0,0.25,0]];resizable=0;" vertex="1" parent="1">
            <mxGeometry x="3460" y="340" width="200" height="170" as="geometry" />
          </mxCell>
        </object>
        <mxCell id="G5PO6u8xQWYdRqNQs2qU-99" style="edgeStyle=orthogonalEdgeStyle;rounded=0;orthogonalLoop=1;jettySize=auto;html=1;entryX=0;entryY=0.5;entryDx=0;entryDy=0;entryPerimeter=0;" edge="1" parent="1" source="G5PO6u8xQWYdRqNQs2qU-98" target="G5PO6u8xQWYdRqNQs2qU-97">
          <mxGeometry relative="1" as="geometry" />
        </mxCell>
        <mxCell id="G5PO6u8xQWYdRqNQs2qU-100" style="edgeStyle=orthogonalEdgeStyle;rounded=0;orthogonalLoop=1;jettySize=auto;html=1;entryX=0;entryY=0.5;entryDx=0;entryDy=0;entryPerimeter=0;startArrow=classic;startFill=1;" edge="1" parent="1" source="G5PO6u8xQWYdRqNQs2qU-77" target="G5PO6u8xQWYdRqNQs2qU-98">
          <mxGeometry relative="1" as="geometry" />
        </mxCell>
        <mxCell id="G5PO6u8xQWYdRqNQs2qU-170" style="edgeStyle=orthogonalEdgeStyle;rounded=0;orthogonalLoop=1;jettySize=auto;html=1;" edge="1" parent="1" source="G5PO6u8xQWYdRqNQs2qU-102" target="G5PO6u8xQWYdRqNQs2qU-137">
          <mxGeometry relative="1" as="geometry" />
        </mxCell>
        <mxCell id="G5PO6u8xQWYdRqNQs2qU-102" value="Sql Server" style="image;aspect=fixed;html=1;points=[];align=center;fontSize=12;image=img/lib/azure2/databases/SQL_Database.svg;" vertex="1" parent="1">
          <mxGeometry x="3679" y="1539.5" width="61.5" height="82" as="geometry" />
        </mxCell>
        <mxCell id="G5PO6u8xQWYdRqNQs2qU-108" style="edgeStyle=orthogonalEdgeStyle;rounded=0;orthogonalLoop=1;jettySize=auto;html=1;" edge="1" parent="1" source="G5PO6u8xQWYdRqNQs2qU-103" target="G5PO6u8xQWYdRqNQs2qU-107">
          <mxGeometry relative="1" as="geometry" />
        </mxCell>
        <mxCell id="G5PO6u8xQWYdRqNQs2qU-119" style="edgeStyle=orthogonalEdgeStyle;rounded=0;orthogonalLoop=1;jettySize=auto;html=1;" edge="1" parent="1" source="G5PO6u8xQWYdRqNQs2qU-103" target="G5PO6u8xQWYdRqNQs2qU-118">
          <mxGeometry relative="1" as="geometry" />
        </mxCell>
        <mxCell id="G5PO6u8xQWYdRqNQs2qU-103" value="Virtual Cluster" style="image;aspect=fixed;html=1;points=[];align=center;fontSize=12;image=img/lib/azure2/databases/Virtual_Clusters.svg;" vertex="1" parent="1">
          <mxGeometry x="3475" y="1538.5" width="92.81" height="90" as="geometry" />
        </mxCell>
        <mxCell id="G5PO6u8xQWYdRqNQs2qU-129" style="edgeStyle=orthogonalEdgeStyle;rounded=0;orthogonalLoop=1;jettySize=auto;html=1;" edge="1" parent="1" source="G5PO6u8xQWYdRqNQs2qU-104" target="G5PO6u8xQWYdRqNQs2qU-128">
          <mxGeometry relative="1" as="geometry" />
        </mxCell>
        <mxCell id="G5PO6u8xQWYdRqNQs2qU-104" value="API Management Server" style="image;aspect=fixed;html=1;points=[];align=center;fontSize=12;image=img/lib/azure2/app_services/API_Management_Services.svg;" vertex="1" parent="1">
          <mxGeometry x="3250" y="1525.5" width="108.33" height="100" as="geometry" />
        </mxCell>
        <mxCell id="G5PO6u8xQWYdRqNQs2qU-105" style="edgeStyle=orthogonalEdgeStyle;rounded=0;orthogonalLoop=1;jettySize=auto;html=1;entryX=0.012;entryY=0.405;entryDx=0;entryDy=0;entryPerimeter=0;" edge="1" parent="1" source="G5PO6u8xQWYdRqNQs2qU-104" target="G5PO6u8xQWYdRqNQs2qU-103">
          <mxGeometry relative="1" as="geometry" />
        </mxCell>
        <mxCell id="G5PO6u8xQWYdRqNQs2qU-106" style="edgeStyle=orthogonalEdgeStyle;rounded=0;orthogonalLoop=1;jettySize=auto;html=1;entryX=0.013;entryY=0.547;entryDx=0;entryDy=0;entryPerimeter=0;" edge="1" parent="1" source="G5PO6u8xQWYdRqNQs2qU-103" target="G5PO6u8xQWYdRqNQs2qU-102">
          <mxGeometry relative="1" as="geometry" />
        </mxCell>
        <mxCell id="G5PO6u8xQWYdRqNQs2qU-107" value="Cache" style="image;aspect=fixed;html=1;points=[];align=center;fontSize=12;image=img/lib/azure2/general/Cache.svg;" vertex="1" parent="1">
          <mxGeometry x="3489.41" y="1395.5" width="64" height="64" as="geometry" />
        </mxCell>
        <mxCell id="G5PO6u8xQWYdRqNQs2qU-113" style="edgeStyle=orthogonalEdgeStyle;rounded=0;orthogonalLoop=1;jettySize=auto;html=1;" edge="1" parent="1" source="G5PO6u8xQWYdRqNQs2qU-109" target="G5PO6u8xQWYdRqNQs2qU-112">
          <mxGeometry relative="1" as="geometry" />
        </mxCell>
        <mxCell id="G5PO6u8xQWYdRqNQs2qU-109" value="Branch" style="image;aspect=fixed;html=1;points=[];align=center;fontSize=12;image=img/lib/azure2/general/Branch.svg;" vertex="1" parent="1">
          <mxGeometry x="2280" y="1570" width="72" height="72" as="geometry" />
        </mxCell>
        <mxCell id="G5PO6u8xQWYdRqNQs2qU-110" value="Code" style="image;aspect=fixed;html=1;points=[];align=center;fontSize=12;image=img/lib/azure2/general/Code.svg;" vertex="1" parent="1">
          <mxGeometry x="2284" y="1710" width="64" height="52" as="geometry" />
        </mxCell>
        <mxCell id="G5PO6u8xQWYdRqNQs2qU-111" style="edgeStyle=orthogonalEdgeStyle;rounded=0;orthogonalLoop=1;jettySize=auto;html=1;entryX=0.5;entryY=1.037;entryDx=0;entryDy=0;entryPerimeter=0;" edge="1" parent="1" source="G5PO6u8xQWYdRqNQs2qU-110" target="G5PO6u8xQWYdRqNQs2qU-109">
          <mxGeometry relative="1" as="geometry" />
        </mxCell>
        <mxCell id="G5PO6u8xQWYdRqNQs2qU-152" style="edgeStyle=orthogonalEdgeStyle;rounded=0;orthogonalLoop=1;jettySize=auto;html=1;entryX=0;entryY=0.5;entryDx=0;entryDy=0;" edge="1" parent="1" source="G5PO6u8xQWYdRqNQs2qU-112" target="G5PO6u8xQWYdRqNQs2qU-151">
          <mxGeometry relative="1" as="geometry">
            <Array as="points">
              <mxPoint x="2316" y="1381" />
            </Array>
          </mxGeometry>
        </mxCell>
        <mxCell id="G5PO6u8xQWYdRqNQs2qU-112" value="Devops" style="image;aspect=fixed;html=1;points=[];align=center;fontSize=12;image=img/lib/azure2/devops/Azure_DevOps.svg;" vertex="1" parent="1">
          <mxGeometry x="2284" y="1440" width="64" height="64" as="geometry" />
        </mxCell>
        <mxCell id="G5PO6u8xQWYdRqNQs2qU-114" value="Starter" style="image;aspect=fixed;html=1;points=[];align=center;fontSize=12;image=img/lib/azure2/devops/DevOps_Starter.svg;" vertex="1" parent="1">
          <mxGeometry x="2430" y="1446" width="68" height="63.75999999999999" as="geometry" />
        </mxCell>
        <mxCell id="G5PO6u8xQWYdRqNQs2qU-115" style="edgeStyle=orthogonalEdgeStyle;rounded=0;orthogonalLoop=1;jettySize=auto;html=1;entryX=0.025;entryY=0.411;entryDx=0;entryDy=0;entryPerimeter=0;" edge="1" parent="1" source="G5PO6u8xQWYdRqNQs2qU-112" target="G5PO6u8xQWYdRqNQs2qU-114">
          <mxGeometry relative="1" as="geometry" />
        </mxCell>
        <mxCell id="G5PO6u8xQWYdRqNQs2qU-142" style="edgeStyle=orthogonalEdgeStyle;rounded=0;orthogonalLoop=1;jettySize=auto;html=1;" edge="1" parent="1" source="G5PO6u8xQWYdRqNQs2qU-116" target="G5PO6u8xQWYdRqNQs2qU-141">
          <mxGeometry relative="1" as="geometry" />
        </mxCell>
        <mxCell id="G5PO6u8xQWYdRqNQs2qU-162" style="edgeStyle=orthogonalEdgeStyle;rounded=0;orthogonalLoop=1;jettySize=auto;html=1;entryX=0;entryY=0.5;entryDx=0;entryDy=0;" edge="1" parent="1" source="G5PO6u8xQWYdRqNQs2qU-116" target="G5PO6u8xQWYdRqNQs2qU-161">
          <mxGeometry relative="1" as="geometry" />
        </mxCell>
        <mxCell id="G5PO6u8xQWYdRqNQs2qU-116" value="Testing Load" style="image;aspect=fixed;html=1;points=[];align=center;fontSize=12;image=img/lib/azure2/other/Load_Testing.svg;" vertex="1" parent="1">
          <mxGeometry x="2560" y="1446" width="59.199999999999996" height="68" as="geometry" />
        </mxCell>
        <mxCell id="G5PO6u8xQWYdRqNQs2qU-117" style="edgeStyle=orthogonalEdgeStyle;rounded=0;orthogonalLoop=1;jettySize=auto;html=1;entryX=-0.003;entryY=0.459;entryDx=0;entryDy=0;entryPerimeter=0;" edge="1" parent="1" source="G5PO6u8xQWYdRqNQs2qU-114" target="G5PO6u8xQWYdRqNQs2qU-116">
          <mxGeometry relative="1" as="geometry" />
        </mxCell>
        <mxCell id="G5PO6u8xQWYdRqNQs2qU-118" value="Kubernetes Server" style="image;aspect=fixed;html=1;points=[];align=center;fontSize=12;image=img/lib/azure2/containers/Kubernetes_Services.svg;" vertex="1" parent="1">
          <mxGeometry x="3487.41" y="1728.5" width="68" height="60" as="geometry" />
        </mxCell>
        <mxCell id="G5PO6u8xQWYdRqNQs2qU-120" value="Sql Server" style="image;aspect=fixed;html=1;points=[];align=center;fontSize=12;image=img/lib/azure2/databases/SQL_Database.svg;" vertex="1" parent="1">
          <mxGeometry x="3650" y="1683.5" width="37.5" height="50" as="geometry" />
        </mxCell>
        <mxCell id="G5PO6u8xQWYdRqNQs2qU-121" value="Sql Server" style="image;aspect=fixed;html=1;points=[];align=center;fontSize=12;image=img/lib/azure2/databases/SQL_Database.svg;" vertex="1" parent="1">
          <mxGeometry x="3714" y="1713.5" width="37.5" height="50" as="geometry" />
        </mxCell>
        <mxCell id="G5PO6u8xQWYdRqNQs2qU-122" value="Sql Server" style="image;aspect=fixed;html=1;points=[];align=center;fontSize=12;image=img/lib/azure2/databases/SQL_Database.svg;" vertex="1" parent="1">
          <mxGeometry x="3650" y="1755.5" width="37.5" height="50" as="geometry" />
        </mxCell>
        <mxCell id="G5PO6u8xQWYdRqNQs2qU-124" style="edgeStyle=orthogonalEdgeStyle;rounded=0;orthogonalLoop=1;jettySize=auto;html=1;entryX=-0.005;entryY=0.544;entryDx=0;entryDy=0;entryPerimeter=0;" edge="1" parent="1" source="G5PO6u8xQWYdRqNQs2qU-118" target="G5PO6u8xQWYdRqNQs2qU-123">
          <mxGeometry relative="1" as="geometry" />
        </mxCell>
        <mxCell id="G5PO6u8xQWYdRqNQs2qU-126" value="User" style="image;aspect=fixed;html=1;points=[];align=center;fontSize=12;image=img/lib/azure2/identity/Users.svg;" vertex="1" parent="1">
          <mxGeometry x="2990" y="1613.5" width="64" height="70" as="geometry" />
        </mxCell>
        <mxCell id="G5PO6u8xQWYdRqNQs2qU-127" value="Manager" style="image;aspect=fixed;html=1;points=[];align=center;fontSize=12;image=img/lib/azure2/identity/User_Settings.svg;" vertex="1" parent="1">
          <mxGeometry x="2990" y="1525.5" width="68" height="56.92" as="geometry" />
        </mxCell>
        <mxCell id="G5PO6u8xQWYdRqNQs2qU-128" value="Security" style="image;aspect=fixed;html=1;points=[];align=center;fontSize=12;image=img/lib/azure2/identity/Security.svg;" vertex="1" parent="1">
          <mxGeometry x="3275.81" y="1375.5" width="56.720000000000006" height="68" as="geometry" />
        </mxCell>
        <mxCell id="G5PO6u8xQWYdRqNQs2qU-130" value="Web Access" style="image;aspect=fixed;html=1;points=[];align=center;fontSize=12;image=img/lib/azure2/identity/Entra_Internet_Access.svg;" vertex="1" parent="1">
          <mxGeometry x="3120" y="1546.17" width="68" height="68" as="geometry" />
        </mxCell>
        <mxCell id="G5PO6u8xQWYdRqNQs2qU-131" style="rounded=0;orthogonalLoop=1;jettySize=auto;html=1;entryX=-0.046;entryY=0.527;entryDx=0;entryDy=0;entryPerimeter=0;" edge="1" parent="1" source="G5PO6u8xQWYdRqNQs2qU-127" target="G5PO6u8xQWYdRqNQs2qU-130">
          <mxGeometry relative="1" as="geometry" />
        </mxCell>
        <mxCell id="G5PO6u8xQWYdRqNQs2qU-132" style="rounded=0;orthogonalLoop=1;jettySize=auto;html=1;entryX=-0.035;entryY=0.527;entryDx=0;entryDy=0;entryPerimeter=0;" edge="1" parent="1" source="G5PO6u8xQWYdRqNQs2qU-126" target="G5PO6u8xQWYdRqNQs2qU-130">
          <mxGeometry relative="1" as="geometry" />
        </mxCell>
        <mxCell id="G5PO6u8xQWYdRqNQs2qU-133" style="edgeStyle=orthogonalEdgeStyle;rounded=0;orthogonalLoop=1;jettySize=auto;html=1;entryX=0.012;entryY=0.555;entryDx=0;entryDy=0;entryPerimeter=0;" edge="1" parent="1" source="G5PO6u8xQWYdRqNQs2qU-130" target="G5PO6u8xQWYdRqNQs2qU-104">
          <mxGeometry relative="1" as="geometry" />
        </mxCell>
        <mxCell id="G5PO6u8xQWYdRqNQs2qU-173" style="edgeStyle=orthogonalEdgeStyle;rounded=0;orthogonalLoop=1;jettySize=auto;html=1;" edge="1" parent="1" source="G5PO6u8xQWYdRqNQs2qU-134" target="G5PO6u8xQWYdRqNQs2qU-172">
          <mxGeometry relative="1" as="geometry" />
        </mxCell>
        <mxCell id="G5PO6u8xQWYdRqNQs2qU-134" value="Data Catalog" style="image;aspect=fixed;html=1;points=[];align=center;fontSize=12;image=img/lib/azure2/integration/Azure_Data_Catalog.svg;" vertex="1" parent="1">
          <mxGeometry x="3840" y="1392.5" width="60" height="67" as="geometry" />
        </mxCell>
        <mxCell id="G5PO6u8xQWYdRqNQs2qU-135" value="Monitor&lt;div&gt;Istio&lt;/div&gt;" style="image;aspect=fixed;html=1;points=[];align=center;fontSize=12;image=img/lib/azure2/management_governance/Monitor.svg;" vertex="1" parent="1">
          <mxGeometry x="3342.5299999999997" y="1732.5" width="64" height="64" as="geometry" />
        </mxCell>
        <mxCell id="G5PO6u8xQWYdRqNQs2qU-136" style="edgeStyle=orthogonalEdgeStyle;rounded=0;orthogonalLoop=1;jettySize=auto;html=1;entryX=-0.013;entryY=0.603;entryDx=0;entryDy=0;entryPerimeter=0;" edge="1" parent="1" source="G5PO6u8xQWYdRqNQs2qU-135" target="G5PO6u8xQWYdRqNQs2qU-118">
          <mxGeometry relative="1" as="geometry" />
        </mxCell>
        <mxCell id="G5PO6u8xQWYdRqNQs2qU-137" value="Service Provider" style="image;aspect=fixed;html=1;points=[];align=center;fontSize=12;image=img/lib/azure2/management_governance/Service_Providers.svg;" vertex="1" parent="1">
          <mxGeometry x="3676.75" y="1393.5" width="66" height="68" as="geometry" />
        </mxCell>
        <mxCell id="G5PO6u8xQWYdRqNQs2qU-138" value="Backup Center" style="image;aspect=fixed;html=1;points=[];align=center;fontSize=12;image=img/lib/azure2/other/Azure_Backup_Center.svg;" vertex="1" parent="1">
          <mxGeometry x="3822" y="1549.17" width="68" height="62" as="geometry" />
        </mxCell>
        <mxCell id="G5PO6u8xQWYdRqNQs2qU-139" style="edgeStyle=orthogonalEdgeStyle;rounded=0;orthogonalLoop=1;jettySize=auto;html=1;entryX=0.001;entryY=0.513;entryDx=0;entryDy=0;entryPerimeter=0;" edge="1" parent="1" source="G5PO6u8xQWYdRqNQs2qU-102" target="G5PO6u8xQWYdRqNQs2qU-138">
          <mxGeometry relative="1" as="geometry" />
        </mxCell>
        <mxCell id="G5PO6u8xQWYdRqNQs2qU-141" value="Static App" style="image;aspect=fixed;html=1;points=[];align=center;fontSize=12;image=img/lib/azure2/preview/Static_Apps.svg;" vertex="1" parent="1">
          <mxGeometry x="2555.6" y="1588" width="68" height="54" as="geometry" />
        </mxCell>
        <mxCell id="G5PO6u8xQWYdRqNQs2qU-155" style="rounded=0;orthogonalLoop=1;jettySize=auto;html=1;" edge="1" parent="1" source="G5PO6u8xQWYdRqNQs2qU-144">
          <mxGeometry relative="1" as="geometry">
            <mxPoint x="2547.0253851797506" y="1841.1999999999998" as="targetPoint" />
          </mxGeometry>
        </mxCell>
        <mxCell id="G5PO6u8xQWYdRqNQs2qU-156" style="rounded=0;orthogonalLoop=1;jettySize=auto;html=1;" edge="1" parent="1" source="G5PO6u8xQWYdRqNQs2qU-144">
          <mxGeometry relative="1" as="geometry">
            <mxPoint x="2630.5282748747322" y="1848" as="targetPoint" />
          </mxGeometry>
        </mxCell>
        <mxCell id="G5PO6u8xQWYdRqNQs2qU-144" value="App Service Enviroments" style="image;aspect=fixed;html=1;points=[];align=center;fontSize=12;image=img/lib/azure2/app_services/App_Service_Environments.svg;" vertex="1" parent="1">
          <mxGeometry x="2560" y="1709" width="68" height="68" as="geometry" />
        </mxCell>
        <mxCell id="G5PO6u8xQWYdRqNQs2qU-146" style="edgeStyle=orthogonalEdgeStyle;rounded=0;orthogonalLoop=1;jettySize=auto;html=1;entryX=0.428;entryY=0.025;entryDx=0;entryDy=0;entryPerimeter=0;" edge="1" parent="1" source="G5PO6u8xQWYdRqNQs2qU-141" target="G5PO6u8xQWYdRqNQs2qU-144">
          <mxGeometry relative="1" as="geometry" />
        </mxCell>
        <mxCell id="G5PO6u8xQWYdRqNQs2qU-147" value="" style="image;sketch=0;aspect=fixed;html=1;points=[];align=center;fontSize=12;image=img/lib/mscae/Docker.svg;" vertex="1" parent="1">
          <mxGeometry x="3735" y="1845.5" width="50" height="41" as="geometry" />
        </mxCell>
        <mxCell id="G5PO6u8xQWYdRqNQs2qU-148" value="Redis" style="image;sketch=0;aspect=fixed;html=1;points=[];align=center;fontSize=12;image=img/lib/mscae/Cache_Redis_Product.svg;" vertex="1" parent="1">
          <mxGeometry x="3489.41" y="1325.5" width="50" height="42" as="geometry" />
        </mxCell>
        <mxCell id="G5PO6u8xQWYdRqNQs2qU-149" value="" style="image;sketch=0;aspect=fixed;html=1;points=[];align=center;fontSize=12;image=img/lib/mscae/Kubernetes.svg;" vertex="1" parent="1">
          <mxGeometry x="3496.41" y="1815.5" width="50" height="48" as="geometry" />
        </mxCell>
        <mxCell id="G5PO6u8xQWYdRqNQs2qU-150" value="BitBucket" style="image;image=img/lib/atlassian/Bitbucket_Logo.svg;html=1;" vertex="1" parent="1">
          <mxGeometry x="2199" y="1586" width="41" height="40" as="geometry" />
        </mxCell>
        <mxCell id="G5PO6u8xQWYdRqNQs2qU-151" value="Confluence" style="image;image=img/lib/atlassian/Confluence_Logo.svg;html=1;" vertex="1" parent="1">
          <mxGeometry x="2352" y="1352" width="63" height="57" as="geometry" />
        </mxCell>
        <mxCell id="G5PO6u8xQWYdRqNQs2qU-157" value="" style="dashed=0;outlineConnect=0;html=1;align=center;labelPosition=center;verticalLabelPosition=bottom;verticalAlign=top;shape=mxgraph.weblogos.app_store;fillColor=#000000;strokeColor=none" vertex="1" parent="1">
          <mxGeometry x="2520" y="1851" width="61.2" height="20" as="geometry" />
        </mxCell>
        <mxCell id="G5PO6u8xQWYdRqNQs2qU-158" value="" style="dashed=0;outlineConnect=0;html=1;align=center;labelPosition=center;verticalLabelPosition=bottom;verticalAlign=top;shape=mxgraph.weblogos.app_store_iphone;fillColor=#75797C;strokeColor=none" vertex="1" parent="1">
          <mxGeometry x="2600" y="1851" width="61.2" height="20" as="geometry" />
        </mxCell>
        <mxCell id="G5PO6u8xQWYdRqNQs2qU-159" value="" style="dashed=0;outlineConnect=0;html=1;align=center;labelPosition=center;verticalLabelPosition=bottom;verticalAlign=top;shape=mxgraph.weblogos.android;fillColor=#A4CA39;strokeColor=none" vertex="1" parent="1">
          <mxGeometry x="2670" y="1842" width="20" height="29" as="geometry" />
        </mxCell>
        <mxCell id="G5PO6u8xQWYdRqNQs2qU-160" value="" style="dashed=0;outlineConnect=0;html=1;align=center;labelPosition=center;verticalLabelPosition=bottom;verticalAlign=top;shape=mxgraph.weblogos.apple;fillColor=#1B1C1C;strokeColor=none" vertex="1" parent="1">
          <mxGeometry x="2490" y="1842" width="22.4" height="27.2" as="geometry" />
        </mxCell>
        <mxCell id="G5PO6u8xQWYdRqNQs2qU-166" style="rounded=0;orthogonalLoop=1;jettySize=auto;html=1;" edge="1" parent="1" source="G5PO6u8xQWYdRqNQs2qU-161" target="G5PO6u8xQWYdRqNQs2qU-163">
          <mxGeometry relative="1" as="geometry" />
        </mxCell>
        <mxCell id="G5PO6u8xQWYdRqNQs2qU-167" style="rounded=0;orthogonalLoop=1;jettySize=auto;html=1;" edge="1" parent="1" source="G5PO6u8xQWYdRqNQs2qU-161" target="G5PO6u8xQWYdRqNQs2qU-164">
          <mxGeometry relative="1" as="geometry" />
        </mxCell>
        <mxCell id="G5PO6u8xQWYdRqNQs2qU-168" style="rounded=0;orthogonalLoop=1;jettySize=auto;html=1;" edge="1" parent="1" source="G5PO6u8xQWYdRqNQs2qU-161" target="G5PO6u8xQWYdRqNQs2qU-165">
          <mxGeometry relative="1" as="geometry" />
        </mxCell>
        <mxCell id="G5PO6u8xQWYdRqNQs2qU-161" value="Microsoft Azure" style="shape=image;html=1;verticalAlign=top;verticalLabelPosition=bottom;labelBackgroundColor=#ffffff;imageAspect=0;aspect=fixed;image=https://cdn0.iconfinder.com/data/icons/social-media-2183/512/social__media__social_media__windows__2_-128.png" vertex="1" parent="1">
          <mxGeometry x="2710" y="1446" width="68" height="68" as="geometry" />
        </mxCell>
        <mxCell id="G5PO6u8xQWYdRqNQs2qU-163" value="Developer" style="shadow=0;dashed=0;html=1;strokeColor=none;fillColor=#4495D1;labelPosition=center;verticalLabelPosition=bottom;verticalAlign=top;align=center;outlineConnect=0;shape=mxgraph.veeam.windows_repository;" vertex="1" parent="1">
          <mxGeometry x="2636.8" y="1290" width="53.2" height="49.2" as="geometry" />
        </mxCell>
        <mxCell id="G5PO6u8xQWYdRqNQs2qU-164" value="HML" style="shadow=0;dashed=0;html=1;strokeColor=none;fillColor=#4495D1;labelPosition=center;verticalLabelPosition=bottom;verticalAlign=top;align=center;outlineConnect=0;shape=mxgraph.veeam.windows_repository;" vertex="1" parent="1">
          <mxGeometry x="2724.8" y="1290" width="53.2" height="49.2" as="geometry" />
        </mxCell>
        <mxCell id="G5PO6u8xQWYdRqNQs2qU-165" value="PROD" style="shadow=0;dashed=0;html=1;strokeColor=none;fillColor=#4495D1;labelPosition=center;verticalLabelPosition=bottom;verticalAlign=top;align=center;outlineConnect=0;shape=mxgraph.veeam.windows_repository;" vertex="1" parent="1">
          <mxGeometry x="2810" y="1290" width="53.2" height="49.2" as="geometry" />
        </mxCell>
        <mxCell id="G5PO6u8xQWYdRqNQs2qU-169" style="edgeStyle=orthogonalEdgeStyle;rounded=0;orthogonalLoop=1;jettySize=auto;html=1;entryX=0;entryY=0.5;entryDx=0;entryDy=0;entryPerimeter=0;" edge="1" parent="1" source="G5PO6u8xQWYdRqNQs2qU-150" target="G5PO6u8xQWYdRqNQs2qU-109">
          <mxGeometry relative="1" as="geometry" />
        </mxCell>
        <mxCell id="G5PO6u8xQWYdRqNQs2qU-171" style="edgeStyle=orthogonalEdgeStyle;rounded=0;orthogonalLoop=1;jettySize=auto;html=1;entryX=-0.046;entryY=0.536;entryDx=0;entryDy=0;entryPerimeter=0;" edge="1" parent="1" source="G5PO6u8xQWYdRqNQs2qU-137" target="G5PO6u8xQWYdRqNQs2qU-134">
          <mxGeometry relative="1" as="geometry" />
        </mxCell>
        <mxCell id="G5PO6u8xQWYdRqNQs2qU-175" style="edgeStyle=orthogonalEdgeStyle;rounded=0;orthogonalLoop=1;jettySize=auto;html=1;" edge="1" parent="1" source="G5PO6u8xQWYdRqNQs2qU-172" target="G5PO6u8xQWYdRqNQs2qU-174">
          <mxGeometry relative="1" as="geometry" />
        </mxCell>
        <mxCell id="G5PO6u8xQWYdRqNQs2qU-172" value="Dataware House" style="image;sketch=0;aspect=fixed;html=1;points=[];align=center;fontSize=12;image=img/lib/mscae/SQL_DataWarehouse.svg;" vertex="1" parent="1">
          <mxGeometry x="3970" y="1545.3799999999999" width="62.75" height="60.24" as="geometry" />
        </mxCell>
        <mxCell id="G5PO6u8xQWYdRqNQs2qU-174" value="Dashboards" style="image;sketch=0;aspect=fixed;html=1;points=[];align=center;fontSize=12;image=img/lib/mscae/Shared_Dashboard.svg;" vertex="1" parent="1">
          <mxGeometry x="3976.38" y="1687.5" width="50" height="41" as="geometry" />
        </mxCell>
      </root>
    </mxGraphModel>
  </diagram>
</mxfile>
